<?xml version="1.0" encoding="UTF-8"?>
<svg id="Capa_2" data-name="Capa 2" xmlns="http://www.w3.org/2000/svg" viewBox="0 0 1000 1000">
  <defs>
    <style>
      .cls-1 {
        fill: none;
      }

      .cls-2 {
        fill: #3f3aa5;
      }
    </style>
  </defs>
  <g id="Capa_1-2" data-name="Capa 1">
    <g>
      <g>
        <path class="cls-2" d="m743.41,269.84v20.42c0,26.58-21.57,48.15-48.15,48.15h-64.81v159.14c0,26.63-21.57,48.15-48.15,48.15h-42.76v-207.29h-255.97v-20.37c0-26.63,21.57-48.2,48.15-48.2h411.69Z"/>
        <path class="cls-2" d="m487.05,390.89v20.42c0,26.59-21.56,48.14-48.14,48.14h-64.33v38.14c0,26.59-21.56,48.15-48.15,48.15h-42.76v-106.69c0-26.6,21.56-48.16,48.16-48.16h155.22Z"/>
        <path d="m226.08,729.45h-13.15v-70.79h51.67v11.03h-38.52v59.76Zm-1.11-38.23h35.29v11.13h-35.29v-11.13Z"/>
        <path d="m299.99,730.16c-6,0-11.24-1.2-15.72-3.59-4.48-2.4-7.95-5.68-10.42-9.86-2.46-4.17-3.69-8.93-3.69-14.25s1.2-10.16,3.59-14.31c2.39-4.15,5.7-7.4,9.91-9.76,4.21-2.36,9.01-3.54,14.41-3.54s9.94,1.15,14.06,3.44c4.11,2.3,7.35,5.53,9.71,9.71,2.36,4.18,3.54,9.1,3.54,14.77,0,.54-.02,1.15-.05,1.82-.04.68-.09,1.32-.16,1.92h-45v-8.39h38.33l-4.96,2.63c.07-3.1-.57-5.83-1.92-8.19-1.34-2.36-3.18-4.21-5.51-5.56-2.33-1.34-5-2.02-8.04-2.02s-5.81.68-8.14,2.02c-2.33,1.35-4.15,3.22-5.46,5.62-1.32,2.39-1.97,5.21-1.97,8.44v2.02c0,3.24.74,6.1,2.22,8.6,1.49,2.49,3.58,4.42,6.27,5.77,2.69,1.34,5.8,2.02,9.3,2.02,3.03,0,5.76-.47,8.19-1.42,2.43-.95,4.58-2.42,6.47-4.44l6.77,7.78c-2.43,2.83-5.48,5-9.15,6.52-3.67,1.51-7.87,2.28-12.58,2.28"/>
        <polygon points="350.85 729.45 327.7 675.45 340.84 675.45 360.77 723.08 354.29 723.08 374.92 675.45 387.06 675.45 363.9 729.45 350.85 729.45"/>
        <path d="m401.31,666.56c-2.36,0-4.3-.74-5.81-2.23-1.52-1.48-2.28-3.27-2.28-5.35s.76-3.96,2.28-5.41c1.51-1.44,3.45-2.17,5.81-2.17s4.29.7,5.81,2.07c1.52,1.38,2.28,3.12,2.28,5.21,0,2.23-.74,4.1-2.22,5.62-1.49,1.51-3.44,2.28-5.87,2.28m-6.37,8.9h12.64v54h-12.64v-54Z"/>
        <path d="m449.54,730.16c-6,0-11.24-1.2-15.72-3.59-4.48-2.4-7.95-5.68-10.42-9.86-2.46-4.17-3.69-8.93-3.69-14.25s1.2-10.16,3.59-14.31c2.39-4.15,5.7-7.4,9.91-9.76,4.21-2.36,9.01-3.54,14.41-3.54s9.94,1.15,14.06,3.44c4.11,2.3,7.35,5.53,9.71,9.71,2.36,4.18,3.54,9.1,3.54,14.77,0,.54-.02,1.15-.05,1.82-.04.68-.09,1.32-.16,1.92h-45v-8.39h38.33l-4.96,2.63c.07-3.1-.57-5.83-1.92-8.19-1.34-2.36-3.18-4.21-5.51-5.56-2.33-1.34-5-2.02-8.04-2.02s-5.81.68-8.14,2.02c-2.33,1.35-4.15,3.22-5.46,5.62-1.32,2.39-1.97,5.21-1.97,8.44v2.02c0,3.24.74,6.1,2.22,8.6,1.49,2.49,3.58,4.42,6.27,5.77,2.69,1.34,5.8,2.02,9.3,2.02,3.03,0,5.76-.47,8.19-1.42,2.43-.95,4.58-2.42,6.47-4.44l6.77,7.78c-2.43,2.83-5.48,5-9.15,6.52-3.67,1.51-7.87,2.28-12.58,2.28"/>
        <path d="m487.06,729.45v-54h12.03v14.87l-1.42-4.35c1.62-3.64,4.17-6.41,7.64-8.29,3.47-1.89,7.8-2.84,13-2.84v12.04c-.54-.14-1.05-.22-1.52-.26s-.95-.05-1.41-.05c-4.79,0-8.6,1.4-11.43,4.2-2.83,2.8-4.25,6.96-4.25,12.49v26.19h-12.64Z"/>
        <polygon points="573 729.45 573 669.8 549.54 669.8 549.54 658.67 609.61 658.67 609.61 669.8 586.15 669.8 586.15 729.45 573 729.45"/>
        <path d="m638.12,730.16c-6,0-11.24-1.2-15.72-3.59-4.48-2.4-7.95-5.68-10.42-9.86-2.46-4.17-3.69-8.93-3.69-14.25s1.2-10.16,3.59-14.31c2.39-4.15,5.7-7.4,9.91-9.76,4.21-2.36,9.01-3.54,14.41-3.54s9.94,1.15,14.06,3.44c4.11,2.3,7.35,5.53,9.71,9.71,2.36,4.18,3.54,9.1,3.54,14.77,0,.54-.02,1.15-.05,1.82-.04.68-.09,1.32-.16,1.92h-45v-8.39h38.33l-4.96,2.63c.07-3.1-.57-5.83-1.92-8.19-1.34-2.36-3.18-4.21-5.51-5.56-2.33-1.34-5-2.02-8.04-2.02s-5.81.68-8.14,2.02c-2.33,1.35-4.15,3.22-5.46,5.62-1.32,2.39-1.97,5.21-1.97,8.44v2.02c0,3.24.74,6.1,2.22,8.6,1.49,2.49,3.58,4.42,6.27,5.77,2.69,1.34,5.8,2.02,9.3,2.02,3.03,0,5.76-.47,8.19-1.42,2.43-.95,4.58-2.42,6.47-4.44l6.77,7.78c-2.43,2.83-5.48,5-9.15,6.52-3.67,1.51-7.87,2.28-12.58,2.28"/>
        <path d="m700.41,730.16c-5.66,0-10.71-1.2-15.12-3.59-4.42-2.4-7.87-5.68-10.36-9.86-2.5-4.17-3.75-8.93-3.75-14.25s1.25-10.16,3.75-14.31c2.49-4.15,5.95-7.4,10.36-9.76,4.41-2.36,9.45-3.54,15.12-3.54,5.26,0,9.89,1.07,13.9,3.19,4.01,2.13,7.06,5.24,9.15,9.35l-9.71,5.66c-1.62-2.56-3.59-4.45-5.91-5.66-2.33-1.22-4.84-1.82-7.53-1.82-3.11,0-5.9.68-8.39,2.02-2.5,1.35-4.45,3.29-5.87,5.82-1.42,2.53-2.13,5.54-2.13,9.05s.71,6.52,2.13,9.05c1.42,2.53,3.37,4.47,5.87,5.82,2.49,1.34,5.29,2.02,8.39,2.02,2.69,0,5.21-.6,7.53-1.82,2.32-1.22,4.29-3.11,5.91-5.66l9.71,5.66c-2.09,4.04-5.14,7.16-9.15,9.35-4.01,2.19-8.64,3.29-13.9,3.29"/>
        <path d="m764.52,674.85c4.31,0,8.17.84,11.58,2.53,3.4,1.69,6.08,4.27,8.04,7.74,1.95,3.47,2.93,7.94,2.93,13.4v30.94h-12.64v-29.33c0-4.79-1.13-8.36-3.39-10.72-2.26-2.36-5.41-3.53-9.45-3.53-2.97,0-5.6.6-7.89,1.82-2.29,1.22-4.06,3.02-5.31,5.41-1.25,2.4-1.87,5.41-1.87,9.05v27.3h-12.64v-75.04h12.64v35.59l-2.73-4.45c1.88-3.44,4.63-6.08,8.24-7.93,3.61-1.86,7.77-2.78,12.49-2.78"/>
      </g>
      <rect class="cls-1" width="1000" height="1000"/>
    </g>
  </g>
</svg>